<svg width="2600" height="3600" viewBox="0 0 3600 3600"
     xmlns="http://www.w3.org/2000/svg"
     style="background:#0b1220; font-family: Inter, Arial, sans-serif;">

  <defs>
    <style>
      .card { fill:#0f172a; stroke:#1f2937; stroke-width:3; rx:14; }
      .title { fill:#e5e7eb; font-size:13px; font-weight:600; }
      .metric { fill:#cbd5f5; font-size:11px; }
      .icon-fill { fill:#60a5fa; }
    </style>
  </defs>

  <!-- ======================= CORE NODES ======================= -->

  <g id="cell-node_01_status">
    <rect class="card" x="40" y="40" width="220" height="120"/>
    <rect class="icon-fill" x="60" y="68" width="26" height="14" rx="2"/>
    <rect class="icon-fill" x="60" y="86" width="26" height="8" rx="2"/>
    <text class="title" x="60" y="110">Node 01</text>
    <text class="metric" x="60" y="130">Status</text>
  </g>

  <g id="cell-node_02_status">
    <rect class="card" x="280" y="40" width="220" height="120"/>
    <rect class="icon-fill" x="300" y="68" width="26" height="14" rx="2"/>
    <rect class="icon-fill" x="300" y="86" width="26" height="8" rx="2"/>
    <text class="title" x="300" y="110">Node 02</text>
    <text class="metric" x="300" y="130">Status</text>
  </g>

  <g id="cell-node_03_status">
    <rect class="card" x="520" y="40" width="220" height="120"/>
    <ellipse class="icon-fill" cx="553" cy="72" rx="13" ry="5"/>
    <rect class="icon-fill" x="540" y="72" width="26" height="18"/>
    <ellipse class="icon-fill" cx="553" cy="90" rx="13" ry="5"/>
    <text class="title" x="540" y="110">Node 03</text>
    <text class="metric" x="540" y="130">Status</text>
  </g>

  <g id="cell-node_04_status">
    <rect class="card" x="760" y="40" width="220" height="120"/>
    <rect class="icon-fill" x="780" y="68" width="26" height="14" rx="2"/>
    <rect class="icon-fill" x="780" y="86" width="26" height="8" rx="2"/>
    <text class="title" x="780" y="110">Node 04</text>
    <text class="metric" x="780" y="130">Status</text>
  </g>

  <g id="cell-node_05_status">
    <rect class="card" x="1000" y="40" width="220" height="120"/>
    <rect class="icon-fill" x="1020" y="68" width="26" height="14" rx="2"/>
    <rect class="icon-fill" x="1020" y="86" width="26" height="8" rx="2"/>
    <text class="title" x="1020" y="110">Node 05</text>
    <text class="metric" x="1020" y="130">Status</text>
  </g>

  <g id="cell-node_06_status">
    <rect class="card" x="1240" y="40" width="220" height="120"/>
    <rect class="icon-fill" x="1260" y="68" width="26" height="14" rx="2"/>
    <rect class="icon-fill" x="1260" y="86" width="26" height="8" rx="2"/>
    <text class="title" x="1260" y="110">Node 06</text>
    <text class="metric" x="1260" y="130">Status</text>
  </g>

  <!-- ======================= EDGE / STORAGE ======================= -->

  <g id="cell-node_07_status">
    <rect class="card" x="40" y="190" width="220" height="120"/>
    <rect class="icon-fill" x="60" y="72" width="26" height="18" rx="3"/>
    <rect class="icon-fill" x="60" y="92" width="26" height="6" rx="3"/>
    <text class="title" x="60" y="260">Node 07</text>
    <text class="metric" x="60" y="280">Status</text>
  </g>

  <g id="cell-node_08_status">
    <rect class="card" x="280" y="190" width="220" height="120"/>
    <rect class="icon-fill" x="300" y="72" width="26" height="18" rx="3"/>
    <rect class="icon-fill" x="300" y="92" width="26" height="6" rx="3"/>
    <text class="title" x="300" y="260">Node 08</text>
    <text class="metric" x="300" y="280">Status</text>
  </g>

  <!-- ======================= INACTIVE ======================= -->

  <g id="cell-node_09_status">
    <rect class="card" x="40" y="340" width="220" height="120"/>
    <rect class="icon-fill" x="60" y="72" width="26" height="18" rx="3"/>
    <rect class="icon-fill" x="60" y="92" width="26" height="6" rx="3"/>
    <text class="title" x="60" y="410">Node 09</text>
    <text class="metric" x="60" y="430">Inactive</text>
  </g>

</svg>
